<svg xmlns="http://www.w3.org/2000/svg" xmlns:xlink="http://www.w3.org/1999/xlink" width="103" height="40" viewBox="0 0 103 40">
    <defs>
        <path id="a" d="M0 40h103V0H0z"/>
    </defs>
    <g fill="none" fill-rule="evenodd">
        <path fill="#FEFEFE" d="M1.877 14.096a8.05 8.05 0 0 0 2.208 1.499c.828.383 1.656.574 2.484.574 1.03 0 1.812-.214 2.346-.644.534-.43.8-.999.8-1.71 0-.373-.068-.69-.206-.952a2.158 2.158 0 0 0-.58-.687 5 5 0 0 0-.883-.546c-.341-.168-.714-.337-1.118-.505l-2.484-1.093a8.458 8.458 0 0 1-1.311-.7 5.736 5.736 0 0 1-1.173-1.01c-.35-.391-.631-.849-.842-1.372C.906 6.427.8 5.829.8 5.156c0-.728.151-1.405.455-2.031a5.136 5.136 0 0 1 1.256-1.64A5.785 5.785 0 0 1 4.43.393 7.334 7.334 0 0 1 6.873 0c1.048 0 2.06.21 3.036.63.975.42 1.812.986 2.511 1.696L10.792 4.4A8.054 8.054 0 0 0 8.97 3.25c-.625-.28-1.325-.42-2.097-.42-.866 0-1.555.192-2.07.575-.516.383-.773.91-.773 1.583 0 .356.078.659.234.911.156.252.368.476.635.673.267.196.575.373.925.532.349.159.708.313 1.076.462l2.457 1.037a8.44 8.44 0 0 1 1.463.785 5.34 5.34 0 0 1 1.145 1.037c.322.392.575.845.759 1.359.184.514.276 1.107.276 1.78 0 .747-.148 1.447-.442 2.1a5.033 5.033 0 0 1-1.283 1.724c-.562.496-1.242.888-2.043 1.177-.8.29-1.706.435-2.718.435a9.141 9.141 0 0 1-3.52-.7A9.163 9.163 0 0 1 0 16.31l1.877-2.214zM15 1h3.046v10.727c0 1.008.083 1.859.25 2.553.166.695.403 1.251.71 1.669.305.418.669.718 1.089.898.42.182.893.271 1.418.271.526 0 1.007-.09 1.445-.27.437-.181.814-.48 1.129-.9.315-.417.56-.973.735-1.668.175-.694.263-1.545.263-2.553V1H28v10.47c0 1.54-.149 2.848-.447 3.923-.297 1.074-.73 1.954-1.3 2.639a5.03 5.03 0 0 1-2.048 1.497c-.797.314-1.694.471-2.692.471-.998 0-1.895-.157-2.692-.47a5.027 5.027 0 0 1-2.048-1.498c-.57-.685-1.007-1.565-1.313-2.64-.307-1.074-.46-2.382-.46-3.922V1zM53.403 16.413c1.758 0 3.108-.527 4.048-1.583.94-1.055 1.41-2.692 1.41-4.913 0-2.201-.474-3.807-1.423-4.816-.95-1.01-2.294-1.514-4.035-1.514H52.06v12.826h1.344zM49 1h4.615c2.636 0 4.693.743 6.17 2.23C61.262 4.714 62 6.944 62 9.916c0 1.487-.19 2.799-.567 3.936-.378 1.138-.923 2.087-1.635 2.849a6.798 6.798 0 0 1-2.584 1.72c-1.011.385-2.158.578-3.441.578H49V1zM73.688 11.624l-.613-2.202a74.955 74.955 0 0 1-.815-2.945 689.555 689.555 0 0 1-.76-3h-.107c-.25 1.01-.498 2.014-.747 3.014-.25 1-.516 1.977-.801 2.931l-.614 2.202h4.457zm.694 2.504h-5.871L67.149 19H64l5.685-18h3.63L79 19h-3.256l-1.362-4.872zM83.006 12.312L78 1h3.167l1.813 4.597c.239.679.477 1.334.716 1.967.238.633.493 1.298.766 1.996h.102c.272-.698.536-1.363.792-1.996.255-.633.502-1.288.74-1.967L87.91 1H91l-5.031 11.312V19h-2.963v-6.688z"/>
        <mask id="b" fill="#fff">
            <use xlink:href="#a"/>
        </mask>
        <path fill="#FEFEFE" d="M49 39h4V21h-4zM73 21h3.034v7.239h6.932V21H86v18h-3.034v-7.982h-6.932V39H73zM94.974 23.697H90V21h13v2.697h-4.974V39h-3.052zM45 14.259L44.989 19 32 4.733 32.019 0zM45 35.259L44.989 40 32 25.733 32.019 21z" mask="url(#b)"/>
        <path fill="#FFF100" d="M96.796 14h-2.592v-3.261H91V8.26h3.204V5h2.592v3.261H100v2.478h-3.204z" mask="url(#b)"/>
        <path fill="#FEFEFE" d="M66.18 30.785v1.62l.003 3.952c-.289.262-.659.462-1.11.602-.451.14-.93.21-1.435.21-1.787 0-3.137-.592-4.048-1.779-.912-1.186-1.368-2.826-1.368-4.918 0-1.027.127-1.952.38-2.774.252-.822.609-1.518 1.069-2.088a4.754 4.754 0 0 1 1.652-1.317c.64-.309 1.358-.462 2.153-.462.83 0 1.512.14 2.044.42.532.28 1.024.644 1.476 1.093l1.733-2.018a7.446 7.446 0 0 0-.948-.869 7.085 7.085 0 0 0-1.191-.742 7.123 7.123 0 0 0-1.436-.519A7.052 7.052 0 0 0 63.448 21a8.563 8.563 0 0 0-3.33.645 7.585 7.585 0 0 0-2.68 1.877c-.76.823-1.355 1.827-1.788 3.013-.434 1.186-.65 2.527-.65 4.021 0 1.513.207 2.859.623 4.036.415 1.176.992 2.167 1.733 2.97a7.222 7.222 0 0 0 2.627 1.821c1.01.41 2.103.617 3.276.617 1.227 0 2.338-.21 3.33-.63.993-.421 1.797-.94 2.411-1.556v-7.03h-2.82z" mask="url(#b)"/>
    </g>
</svg>
